<svg id="Layer_1" data-name="Layer 1" xmlns="http://www.w3.org/2000/svg" width="195.5408" height="88.4466" viewBox="0 0 195.5408 88.4466"><defs><style>.cls-1{fill:#005480;isolation:isolate;}.cls-2{fill:#fbe901;}.cls-3{fill:#fff200;}.cls-4{fill:#231f20;}</style></defs><title>logo-header</title><ellipse class="cls-1" cx="97.7837" cy="44.2233" rx="97.7837" ry="44.2233"/><path class="cls-2" d="M162.7617,26.8a3.5082,3.5082,0,0,1,.5-.8,2.1774,2.1774,0,0,1,.8-.5,2.125,2.125,0,0,1,1.8,0,2.0978,2.0978,0,0,1,1.3,1.3,2.6,2.6,0,0,1,0,2,3.5082,3.5082,0,0,1-.5.8,2.1774,2.1774,0,0,1-.8.5,2.125,2.125,0,0,1-1.8,0,2.0978,2.0978,0,0,1-1.3-1.3,2.6,2.6,0,0,1,0-2m.6,1.7a1.8385,1.8385,0,0,0,1,1,2.5,2.5,0,0,0,1.4,0,1.8385,1.8385,0,0,0,1-1,1.95,1.95,0,0,0,.1-.8,2.2018,2.2018,0,0,0-.1-.8,1.8385,1.8385,0,0,0-1-1,1.7018,1.7018,0,0,0-.7-.1c-.3,0-.5.1-.7.1a1.8385,1.8385,0,0,0-1,1,1.95,1.95,0,0,0-.1.8,1.7192,1.7192,0,0,0,.1.8m1.8-2.1a1.8839,1.8839,0,0,1,.8.2.6047.6047,0,0,1,.3.6.3674.3674,0,0,1-.1.3.3491.3491,0,0,1-.1.2c-.1.1-.1.1-.2.1s-.2.1-.3.1l.7,1.2h-.6l-.7-1.1h-.3v1.1h-.6V26.4Zm-.1,1.2c.2,0,.3,0,.4-.1.1,0,.1-.1.1-.3,0-.1,0-.1-.1-.2l-.1-.1h-.8v.7Z"/><path class="cls-3" d="M162.7617,26.8a3.5082,3.5082,0,0,1,.5-.8,2.1774,2.1774,0,0,1,.8-.5,2.125,2.125,0,0,1,1.8,0,2.0978,2.0978,0,0,1,1.3,1.3,2.6,2.6,0,0,1,0,2,3.5082,3.5082,0,0,1-.5.8,2.1774,2.1774,0,0,1-.8.5,2.125,2.125,0,0,1-1.8,0,2.0978,2.0978,0,0,1-1.3-1.3,2.6,2.6,0,0,1,0-2m.6,1.7a1.8385,1.8385,0,0,0,1,1,2.5,2.5,0,0,0,1.4,0,1.8385,1.8385,0,0,0,1-1,1.95,1.95,0,0,0,.1-.8,2.2018,2.2018,0,0,0-.1-.8,1.8385,1.8385,0,0,0-1-1,1.7018,1.7018,0,0,0-.7-.1c-.3,0-.5.1-.7.1a1.8385,1.8385,0,0,0-1,1,1.95,1.95,0,0,0-.1.8,1.7192,1.7192,0,0,0,.1.8m1.8-2.1a1.8839,1.8839,0,0,1,.8.2.6047.6047,0,0,1,.3.6.3674.3674,0,0,1-.1.3.3491.3491,0,0,1-.1.2c-.1.1-.1.1-.2.1s-.2.1-.3.1l.7,1.2h-.6l-.7-1.1h-.3v1.1h-.6V26.4Zm-.1,1.2c.2,0,.3,0,.4-.1.1,0,.1-.1.1-.3,0-.1,0-.1-.1-.2l-.1-.1h-.8v.7Z"/><path class="cls-4" d="M46.5617,51.3s4.5-9.6,4.5-9.7.1-.1.2,0c0,.1,4.8,9.7,4.8,9.7h-9.5m-4.8,5.1a9.1729,9.1729,0,0,1-6.7,5.4.8585.8585,0,0,0-.8.7c0,.4.2.6,1.1.5,1.6-.2,4.6-.2,7-.2,1.7,0,3.4,0,5.1.1a10.8687,10.8687,0,0,1,1.8.1.3663.3663,0,0,0,.4-.4.69.69,0,0,0-.3-.5,2.3893,2.3893,0,0,0-.7-.3,11.0876,11.0876,0,0,1-2.2-.7c-3.1-1.8-2.3-4.4-2.2-4.7a17.4637,17.4637,0,0,1,1.5-3.3h11c0,.1,2,4,2.9,5.9a2.239,2.239,0,0,1,.1,1.8c-.8,1.3-2.4,1.1-3.7,1.4-.2.1-.7.2-.7.7,0,.2.1.4.6.3,3.9-.1,8.3-.3,12.5-.3,2.8,0,6.4.1,8.5.3.5,0,.7,0,.7-.3s-.2-.5-.6-.7a16.8174,16.8174,0,0,1-2.4-.7,5.085,5.085,0,0,1-1.4-2l-16.2-32.4-.2-.2c-.2-.1-.4.1-.5.3l-2.5,4.8Zm49-14.7a5.3557,5.3557,0,0,1,1.8,4.5c0,1.9.2,10.8.1,11.6a2.8619,2.8619,0,0,1-1.4,2.2,3.7148,3.7148,0,0,1-4.5-.5c-2.2-2.2-2.7-5-2.9-9.4-.2-5.2,1-7.8,2.7-8.8,1-.4,3.3-.4,4.2.4m12-1.6V27.7c0-.4-.2-.4-.5-.4-1.5.4-12.5,3.1-12.9,3.2,0,0-.5.1,0,.4,0,0,2.6,1.1,2.9,3v5.8h-2.8c-3.2,0-6.5.3-9.1,1.9a12.2771,12.2771,0,0,0-5.2,6c-1.6,4-1.2,11.2,3.6,14.5a11.76,11.76,0,0,0,6.6,2.1h.1a10.1584,10.1584,0,0,0,3.4-.6,13.6212,13.6212,0,0,0,3.9-2.5,10.9328,10.9328,0,0,1,.1,2c0,1.3.5,1.5,1,1.3a56.2037,56.2037,0,0,1,8.3-2.2c2-.4,2.9-.3,2.9-.6.1-.3-.5-.3-.9-.5-.9-.3-1.6-.9-1.6-1.6V41.4a4.7378,4.7378,0,0,1,2.8,1.8c.1.2,11.4,20.4,11.4,20.4.3.5.5.8.9.8s.7-.5.9-.8c.3-.2,8.5-16.4,8.5-16.4,1.4-2.5,3-5.4,5.7-6.5.3-.1.3-.2.3-.3s-.2-.2-.4-.2h-9s-.2,0,0,.2a3.4021,3.4021,0,0,1,1.7,1.3,3.7829,3.7829,0,0,1,.2,3l-3.2,6.5-4.4-8.2c-.4-.7-.1-1.3,1-1.8.6-.3,1.1-.3,1.1-.6s-.2-.4-.6-.4Zm29.6-8c0,2.9,2.7,5.2,6.1,5.2,3.3,0,6.1-2.3,6.1-5.2s-2.7-5.2-6.1-5.2-6.1,2.3-6.1,5.2m13.8,30.7a.28.28,0,0,0,.2-.5c-.2-.2-.7-.2-1.1-.4a1.57,1.57,0,0,1-1.3-1.3V39.9a.9563.9563,0,0,0-.2-.7c-.1-.1-.3-.2-.7,0a66.1175,66.1175,0,0,1-8.9,2.9c-.3.1-1.8.4-2.3.5-.2.1-.4.1-.4.2a.31.31,0,0,0,.1.2c.2.1,1.1.8,1.6,1.2a2.3522,2.3522,0,0,1,.6,1.7V60.7c0,.6-.5,1.1-1.3,1.3a2.8169,2.8169,0,0,0-1.1.4c-.2.2-.1.5.2.4,1.7-.1,4.7-.1,7-.1,2.3.1,5.3.1,7.6.1m14.3-35.9c-3.2.7-8.4,1.9-11,2.5-1,.2-1.3.3-1.5.7-.1.3.6.6,1,.9a3.5056,3.5056,0,0,1,1.4,2.7V60.6c0,.6-.5,1.1-1.3,1.4a2.8169,2.8169,0,0,0-1.1.4c-.2.2-.1.5.2.4,1.7-.1,4.7-.1,7-.1h8.4a.28.28,0,0,0,.2-.5c-.2-.2-.7-.2-1.1-.4a1.5673,1.5673,0,0,1-1.3-1.4V27.2c0-.2,0-.4-.2-.5a6.3729,6.3729,0,0,1-.7.2"/><path class="cls-3" d="M45.3617,50.2s4.5-9.6,4.5-9.7.1-.1.2,0c0,.1,4.8,9.7,4.8,9.7h-9.5m9.1-24.3c-1.4,2.7-13.7,29.4-13.7,29.4a9.6147,9.6147,0,0,1-6.9,5.4c-.5.1-.8.3-.8.7s.2.6,1.1.5c1.6-.2,4.6-.2,7-.2,1.7,0,3.4,0,5.1.1a10.8687,10.8687,0,0,1,1.8.1.3663.3663,0,0,0,.4-.4.69.69,0,0,0-.3-.5,2.3893,2.3893,0,0,0-.7-.3,11.0876,11.0876,0,0,1-2.2-.7c-3.1-1.8-2.3-4.4-2.2-4.7a17.4637,17.4637,0,0,1,1.5-3.3h11c0,.1,2,4,2.9,5.9a2.239,2.239,0,0,1,.1,1.8c-.8,1.3-2.4,1.1-3.7,1.4-.2.1-.7.2-.7.7,0,.2.1.4.6.3,3.9-.1,8.3-.3,12.5-.3,2.8,0,6.4.1,8.5.3.5,0,.7,0,.7-.3s-.2-.5-.6-.7c-.8-.3-1.6-.4-2.4-.7a2.8261,2.8261,0,0,1-1.7-1.3c-.4-.8-16.7-33-16.7-33.2-.1-.1-.2-.2-.3-.2s-.2.1-.3.2m35,14.6a5.3557,5.3557,0,0,1,1.8,4.5c0,1.9.2,11.1.1,11.9a2.8619,2.8619,0,0,1-1.4,2.2,3.8781,3.8781,0,0,1-4.5-.8c-2.2-2.2-2.7-5-2.9-9.4-.2-5.2,1-7.8,2.7-8.8,1.1-.3,3.3-.3,4.2.4m11.6-14.3c-1.5.4-13.4,3.4-13.9,3.5s-.5.2-.5.4.6.4,1.6.8c.3.2,2.1.8,2.7,1.9v6h-2.8c-3.2,0-6.5.3-9.1,1.9a12.0223,12.0223,0,0,0-5.2,5.7c-1.6,4-1.2,11.2,3.6,14.5a11.76,11.76,0,0,0,6.6,2.1h.1a10.1584,10.1584,0,0,0,3.4-.6,13.6212,13.6212,0,0,0,3.9-2.5,10.9328,10.9328,0,0,1,.1,2c0,1.3.5,1.5,1,1.3a56.2037,56.2037,0,0,1,8.3-2.2c2-.4,2.9-.3,2.9-.6.1-.3-.5-.3-.9-.5-.9-.3-1.6-.9-1.6-1.6V40.2a4.7378,4.7378,0,0,1,2.8,1.8s11.4,19.8,11.8,20.4c.3.5.5.8.9.8s.7-.5.9-.8c.1-.2,8.4-16.4,8.4-16.4,1.4-2.5,3-5.4,5.7-6.5.3-.1.3-.2.3-.3s-.2-.2-.4-.2h-9.9c-.3,0-.4.2-.4.3,0,.2.2.3.5.4a10.1708,10.1708,0,0,1,2.2,1,3.1846,3.1846,0,0,1,1.1,3.2c-.4,1.7-4,8.1-4,8.1-2-3.4-5.6-10.2-5.6-10.2-.4-.7-.1-1.3,1-1.8.6-.3,1.1-.3,1.1-.6s-.2-.4-.6-.4h-15.8V26.6c.3-.4,0-.5-.2-.4m30.7,5c0,2.9,2.7,5.2,6.1,5.2,3.3,0,6.1-2.3,6.1-5.2s-2.7-5.2-6.1-5.2-6.1,2.3-6.1,5.2m13.2,30.5a.28.28,0,0,0,.2-.5c-.2-.2-.7-.2-1.1-.4a1.57,1.57,0,0,1-1.3-1.3V38.8a.9563.9563,0,0,0-.2-.7c-.1-.1-.3-.2-.7,0a68.6114,68.6114,0,0,1-9.4,2.9c-.4,0-1.9.4-2.4.5-.2.1-.4.1-.4.2a.31.31,0,0,0,.1.2c.2.1,1.1.8,1.6,1.2.4.4,1.1,1,1.1,1.7V59.6c0,.6-.5,1.1-1.3,1.3a2.8169,2.8169,0,0,0-1.1.4c-.2.2-.1.5.2.4,1.7-.1,4.7-.1,7-.1,2.4,0,5.3.1,7.7.1m14.3-36c-3.2.7-9.5,2.2-12.1,2.8-1,.2-1.4.4-1.3.9,0,.3.8.6,1.4.8a2.8251,2.8251,0,0,1,1.9,2.4V59.5c0,.6-.5,1.1-1.3,1.4a2.8169,2.8169,0,0,0-1.1.4c-.2.2-.1.5.2.4,1.7-.1,4.7-.1,7-.1h8.4a.28.28,0,0,0,.2-.5c-.2-.2-.7-.2-1.1-.4a1.5673,1.5673,0,0,1-1.3-1.4V26.1c0-.2,0-.4-.2-.5-.2,0-.4.1-.7.1"/></svg>