<svg width="505" height="92" fill="none" xmlns="http://www.w3.org/2000/svg"><g clip-path="url(#clip0)" fill="#DF1683"><path d="M504.35 78.885a5.386 5.386 0 10-10.772.015 5.386 5.386 0 0010.772-.015zm-1.476 0c0 2.205-1.743 3.993-3.903 3.993-2.161 0-3.919-1.788-3.919-3.993 0-2.19 1.758-3.993 3.919-3.993 2.16 0 3.903 1.803 3.903 3.993zm-2.309.7c.596-.298.983-.864.983-1.624 0-1.177-.7-1.966-1.981-1.966h-2.623v5.498h1.46v-1.61h.745l.805 1.61h1.639l-1.028-1.908zm-2.161-.998v-1.252h1.073c.403 0 .581.239.581.626 0 .373-.193.626-.581.626h-1.073zM270.71 73.38l-1.81 1.23c-3.88 2.65-7.18 3.79-11 3.79a18.24 18.24 0 010-36.47c4.17 0 7.14 1 11 3.82l1.8 1.32 6.55-8.18-1.75-1.46a27.68 27.68 0 00-17.69-6.05 28.8 28.8 0 100 57.6 27.401 27.401 0 0017.52-5.82l1.87-1.44-6.49-8.34zM311.23 88.01V32.38h32.74v6h-26.05v18.46h25.05v6h-25.05v19.12h26.05v6l-32.74.05zM383.9 88.01V32.38h6.68v49.61h26.07v6l-32.75.02zM452.9 88.01V32.38h6.7v49.61h26.05v6l-32.75.02zM303.64 9.82a9.816 9.816 0 01-6.064 9.073 9.82 9.82 0 11.01-18.145 9.808 9.808 0 016.054 9.072zM6.68 47.38v40.68H0V30.54l38.75 42.51V32.38h6.68v57.48L6.68 47.38zM80.4 88.01V32.38h32.75v6H87.07v18.46h25.07v6H87.07v19.12h26.08v6l-32.75.05zM172.57 88.68a28.489 28.489 0 01-20.145-48.636 28.486 28.486 0 0131.048-6.175A28.492 28.492 0 01201.06 60.19a28.402 28.402 0 01-8.321 20.169 28.408 28.408 0 01-20.169 8.32zm0-50.63c-12.11 0-21.72 9.69-21.72 22.14a21.733 21.733 0 0013.3 20.49 21.731 21.731 0 008.42 1.7c12.12 0 21.72-9.7 21.72-22.14 0-12.44-9.6-22.19-21.72-22.19z"/></g><defs><clipPath id="clip0"><path fill="#fff" d="M0 0h504.8v91.75H0z"/></clipPath></defs></svg>