<svg width="1000" height="331" viewBox="0 0 1000 331" xmlns="http://www.w3.org/2000/svg"><path d="M867 326l-1-2c0-2 1-3 3-3h2c3 3 6 4 10 4s7-2 7-4v-1c0-2-2-4-9-5-7-2-12-4-12-11s5-11 13-11c4 0 8 1 11 3l2 3c0 2-2 3-3 3h-2l-8-3c-4 0-6 2-6 4 0 3 1 4 8 6 8 2 12 5 12 11 0 7-5 11-13 11-5 0-10-2-14-5zm-33-26h-9c-2 0-3-1-3-3s1-3 3-3h24c2 0 3 1 3 3s-1 3-3 3h-9v28c0 2-1 3-3 3s-3-1-3-3v-28zm-42 12c5 0 8-2 8-6s-3-6-8-6h-9v12h9zm-15-15c0-2 1-3 3-3h13c5 0 9 1 11 4 2 2 3 4 3 8 0 6-3 9-8 11l7 9 1 2c0 2-2 3-3 3l-4-2-8-11h-9v10c0 2-1 3-3 3s-3-1-3-3v-31zm-45 31v-31c0-2 1-3 3-3h21c1 0 3 1 3 3s-2 3-3 3h-18v9h16l2 3c0 2-1 3-2 3h-16v10h18c2 0 3 2 3 3 0 2-1 3-3 3h-21c-2 0-3-1-3-3zm-32-15c5 0 8-3 8-6v-1c0-4-3-6-8-6h-7v13h7zm-13-16c0-2 1-3 3-3h11c9 0 14 5 14 12 0 9-7 13-14 13h-8v9c0 2-1 3-3 3s-3-1-3-3v-31zm-48 29l11-14-10-12-1-3c0-2 1-3 3-3l3 2 9 12 9-12c0-1 1-2 3-2 1 0 2 1 2 3v2l-11 13 11 13 1 3c0 2-1 3-3 3l-3-2-10-12-9 12-3 2c-2 0-3-1-3-3l1-2zm-45 2v-31c0-2 1-3 3-3h21c1 0 3 1 3 3s-2 3-3 3h-18v9h16l2 3c0 2-1 3-2 3h-16v10h18c2 0 3 2 3 3 0 2-1 3-3 3h-21c-2 0-3-1-3-3zm-69-32c0-2 1-3 3-3s3 1 3 3v28h17c2 0 3 1 3 3s-1 3-3 3h-20c-2 0-3-1-3-3v-31zm-28 20l-6-15-7 15h13zm-25 10l14-30c1-2 2-3 4-3s3 1 4 3l14 30v2c0 2-1 3-3 3s-3-1-3-2l-3-7h-18l-3 7-3 2a3 3 0 0 1-3-5zm-30-14c5 0 8-2 8-6s-3-6-8-6h-9v12h9zm-15-15c0-2 1-3 3-3h13c5 0 9 1 11 4 2 2 3 4 3 8 0 6-3 9-8 11l7 9 1 2c0 2-2 3-3 3l-4-2-8-11h-9v10c0 2-1 3-3 3s-3-1-3-3v-31zm-45 31v-31c0-2 1-3 3-3h21c1 0 3 1 3 3s-2 3-3 3h-18v9h16l2 3c0 2-1 3-2 3h-16v10h18c2 0 3 2 3 3 0 2-1 3-3 3h-21c-2 0-3-1-3-3zm-52-31c0-1 1-3 3-3h1c2 0 2 1 3 2l19 24v-23c0-2 1-3 3-3s3 1 3 3v31c0 2-1 3-3 3l-4-2-19-24v23c0 2-1 3-3 3s-3-1-3-3v-31zm-26 0c0-2 1-3 3-3s3 1 3 3v31c0 2-1 3-3 3s-3-1-3-3v-31zm-56 0c0-2 1-3 3-3h1l3 2 11 17 11-17 3-2h1c2 0 3 1 3 3v31c0 2-1 3-3 3s-3-1-3-3v-22l-9 13-3 2-3-2-9-13v22c0 2-1 3-3 3s-3-1-3-3v-31zm-71 31v-31c0-2 1-3 3-3h21c1 0 3 1 3 3s-2 3-3 3h-18v9h16l2 3c0 2-1 3-2 3h-16v10h18c2 0 3 2 3 3 0 2-1 3-3 3h-21c-2 0-3-1-3-3zm-50-31c0-2 1-3 3-3s3 1 3 3v12h18v-12c0-2 1-3 3-3s3 1 3 3v31c0 2-1 3-3 3s-3-1-3-3v-13h-18v13c0 2-1 3-3 3s-3-1-3-3v-31zm-35 3h-9c-2 0-3-1-3-3s1-3 3-3h24c2 0 3 1 3 3s-1 3-3 3h-9v28c0 2-1 3-3 3s-3-1-3-3v-28zM973 52c0-3-2-5-5-5h-7v9h7c3 0 5-2 5-4zm3 10l5 5 1 4c0 3-2 5-5 5l-4-2-8-10h-5v7c0 3-2 5-5 5s-5-2-5-5V43c0-3 2-5 5-5h13c9 0 15 4 15 13 0 5-3 9-7 11zm20-5c0-17-13-31-30-31-18 0-31 14-31 32 0 17 13 31 31 31 17 0 30-14 30-31v-1zm4 0v1c0 19-15 35-34 35-20 0-35-16-35-35 0-20 15-36 35-36 19 0 34 16 34 35zm-137 1c-16 0-30 6-39 17v-2c0-9-6-15-14-15-9 0-14 6-14 15v125c0 9 5 15 14 15 8 0 14-6 14-15v-81c0-24 16-34 32-34 15 0 31 10 31 34v81c0 9 6 15 14 15 9 0 14-6 14-15v-82c0-40-26-58-52-58zm-117 67c-1-21-13-42-37-42h-2c-32 0-37 30-38 42h77zm13 22h-89c0 25 17 41 41 41 20 0 31-8 38-14 4-3 8-6 11-6 6 0 11 5 11 13 0 13-31 32-60 32-51 0-69-42-69-78 0-38 23-77 67-77 42 0 65 38 65 74 0 10-5 15-15 15zm-178-25c-16-7-30-12-30-22 0-13 13-17 24-17 13 0 20 5 25 9 4 3 8 6 12 6 9 0 13-6 13-12 0-17-30-28-50-28-26 0-52 15-52 43 0 24 24 34 45 43 17 7 33 14 33 26 0 9-10 18-26 18s-25-6-33-11c-4-4-9-7-13-7-7 0-12 6-12 13 0 14 25 30 57 30 27 0 55-15 55-47 0-26-25-36-48-44zm-124 0c-16-7-30-12-30-22 0-13 13-17 24-17 13 0 20 5 25 9 4 3 8 6 12 6 9 0 13-6 13-12 0-17-30-28-50-28-26 0-52 15-52 43 0 24 24 34 45 43 17 7 33 14 33 26 0 9-10 18-26 18s-25-6-33-11c-4-4-9-7-13-7-7 0-12 6-12 13 0 14 25 30 57 30 27 0 55-15 55-47 0-26-25-36-48-44zm-111 14c0-24-10-53-38-53-29 0-39 29-39 53 0 25 10 53 39 53 28 0 38-28 38-53zm26-64v127c0 9-7 14-13 14s-13-5-13-14v-6a49 49 0 0 1-39 20c-43 0-66-39-66-78 0-38 23-77 66-77 15 0 27 5 39 18v-4c0-9 7-14 13-14s13 5 13 14zM249 14c-1 4-11 109-70 193l-3 3-1 1-3 1-1 1h-7v-1h-1l-1-1h-2v-1l-1-1-1-1c-13-17-24-37-33-58a350 350 0 0 1-35 60h-1v1l-3 1-1 1h-7l-1-1h-1l-1-1h-1l-1-2-1-1h-1C11 124 0 18 0 14-1 7 5 1 11 0c7-1 13 5 14 11 0 1 9 91 57 167 11-18 21-38 29-60C91 63 86 16 86 14c0-7 5-13 12-14s13 5 13 11c0 2 3 29 14 66 10-38 13-65 13-66 1-6 6-11 12-11h1c7 1 12 7 12 14-1 2-5 49-25 104 9 22 19 42 30 60 46-74 56-163 56-166 1-7 7-13 14-12 6 1 12 7 11 14z" fill="#9C9C9C" fill-rule="evenodd"/></svg>